<svg width="45" height="37" viewBox="0 0 45 37" fill="none" xmlns="http://www.w3.org/2000/svg">
<path d="M14.1356 37C31.1175 37 40.4072 22.7614 40.4072 10.4354C40.4072 10.037 40.4072 9.63284 40.3903 9.2344C42.1989 7.90955 43.7599 6.2693 45 4.39051C43.3106 5.14427 41.5203 5.64106 39.6872 5.86474C41.6181 4.69685 43.0642 2.85927 43.7569 0.693551C41.9428 1.78108 39.9572 2.54452 37.8872 2.95043C36.4955 1.45066 34.6539 0.457099 32.6477 0.123661C30.6415 -0.209778 28.5827 0.135511 26.79 1.10604C24.9974 2.07657 23.571 3.61818 22.7319 5.49208C21.8928 7.36598 21.6877 9.46758 22.1484 11.4714C18.4774 11.2851 14.886 10.3201 11.6073 8.63886C8.32857 6.95765 5.43567 4.59782 3.11625 1.71242C1.93877 3.77032 1.57943 6.20455 2.11119 8.52081C2.64296 10.8371 4.02597 12.8617 5.97937 14.1836C4.51558 14.1333 3.08396 13.7355 1.8 13.0224V13.1505C1.80252 15.3063 2.54055 17.3951 3.88933 19.0638C5.23811 20.7325 7.11492 21.8788 9.2025 22.3089C8.41011 22.5298 7.59158 22.6399 6.76969 22.6362C6.19027 22.638 5.61201 22.5837 5.04281 22.474C5.63284 24.3298 6.78171 25.9523 8.32851 27.1143C9.87531 28.2764 11.7426 28.9198 13.6688 28.9544C10.3966 31.555 6.35457 32.9655 2.19375 32.9587C1.46059 32.9618 0.72794 32.919 0 32.8306C4.22301 35.555 9.1274 37.0016 14.1356 37Z" fill="#EEEEEE"/>
</svg>
