<svg width="173" height="37" viewBox="0 0 173 37" fill="none" xmlns="http://www.w3.org/2000/svg">
<path d="M18.002 24.4316L0.546875 16.7324V14.2188L18.002 5.5V9.71875L5.97852 15.291L18.002 20.2305V24.4316ZM155.424 2.30078L145.844 28H140.975L150.555 2.30078H155.424ZM155.347 20.2305L167.37 15.291L155.347 9.71875V5.5L172.802 14.2188V16.7324L155.347 24.4316V20.2305Z" fill="#EEEEEE"/>
<path d="M38.7195 28H33.3582V16.5215C33.3582 13.6855 32.3035 12.2676 30.1941 12.2676C28.6941 12.2676 27.6102 12.7773 26.9422 13.7969C26.2742 14.8164 25.9402 16.4688 25.9402 18.7539V28H20.5789V0.648438H25.9402V6.2207C25.9402 6.6543 25.8992 7.67383 25.8172 9.2793L25.6941 10.8613H25.9754C27.1707 8.93945 29.0691 7.97852 31.6707 7.97852C33.9793 7.97852 35.7313 8.59961 36.9266 9.8418C38.1219 11.084 38.7195 12.8652 38.7195 15.1855V28ZM46.7105 18.1387C46.7105 20.084 47.027 21.5547 47.6598 22.5508C48.3043 23.5469 49.3473 24.0449 50.7887 24.0449C52.2184 24.0449 53.2438 23.5527 53.8648 22.5684C54.4977 21.5723 54.8141 20.0957 54.8141 18.1387C54.8141 16.1934 54.4977 14.7344 53.8648 13.7617C53.232 12.7891 52.1949 12.3027 50.7535 12.3027C49.3238 12.3027 48.2926 12.7891 47.6598 13.7617C47.027 14.7227 46.7105 16.1816 46.7105 18.1387ZM60.2984 18.1387C60.2984 21.3379 59.4547 23.8398 57.7672 25.6445C56.0797 27.4492 53.7301 28.3516 50.7184 28.3516C48.8316 28.3516 47.1676 27.9414 45.7262 27.1211C44.2848 26.2891 43.1773 25.0996 42.4039 23.5527C41.6305 22.0059 41.2438 20.2012 41.2438 18.1387C41.2438 14.9277 42.0816 12.4316 43.7574 10.6504C45.4332 8.86914 47.7887 7.97852 50.8238 7.97852C52.7105 7.97852 54.3746 8.38867 55.816 9.20898C57.2574 10.0293 58.3648 11.207 59.1383 12.7422C59.9117 14.2773 60.2984 16.0762 60.2984 18.1387ZM67.1996 18.1387C67.1996 20.084 67.516 21.5547 68.1488 22.5508C68.7934 23.5469 69.8363 24.0449 71.2777 24.0449C72.7074 24.0449 73.7328 23.5527 74.3539 22.5684C74.9867 21.5723 75.3031 20.0957 75.3031 18.1387C75.3031 16.1934 74.9867 14.7344 74.3539 13.7617C73.7211 12.7891 72.684 12.3027 71.2426 12.3027C69.8129 12.3027 68.7816 12.7891 68.1488 13.7617C67.516 14.7227 67.1996 16.1816 67.1996 18.1387ZM80.7875 18.1387C80.7875 21.3379 79.9437 23.8398 78.2562 25.6445C76.5687 27.4492 74.2191 28.3516 71.2074 28.3516C69.3207 28.3516 67.6566 27.9414 66.2152 27.1211C64.7738 26.2891 63.6664 25.0996 62.893 23.5527C62.1195 22.0059 61.7328 20.2012 61.7328 18.1387C61.7328 14.9277 62.5707 12.4316 64.2465 10.6504C65.9223 8.86914 68.2777 7.97852 71.3129 7.97852C73.1996 7.97852 74.8637 8.38867 76.3051 9.20898C77.7465 10.0293 78.8539 11.207 79.6273 12.7422C80.4008 14.2773 80.7875 16.0762 80.7875 18.1387ZM100.521 8.34766V11.0723L97.4445 11.8633C98.007 12.7422 98.2883 13.7266 98.2883 14.8164C98.2883 16.9258 97.55 18.5723 96.0734 19.7559C94.6086 20.9277 92.5695 21.5137 89.9563 21.5137L88.9895 21.4609L88.1984 21.373C87.6477 21.7949 87.3723 22.2637 87.3723 22.7793C87.3723 23.5527 88.3566 23.9395 90.3254 23.9395H93.6652C95.8215 23.9395 97.4621 24.4023 98.5871 25.3281C99.7238 26.2539 100.292 27.6133 100.292 29.4062C100.292 31.7031 99.3313 33.4844 97.4094 34.75C95.4992 36.0156 92.7512 36.6484 89.1652 36.6484C86.423 36.6484 84.3254 36.168 82.8723 35.207C81.4309 34.2578 80.7102 32.9219 80.7102 31.1992C80.7102 30.0156 81.0793 29.0254 81.8176 28.2285C82.5559 27.4316 83.6398 26.8633 85.0695 26.5234C84.5188 26.2891 84.0383 25.9082 83.6281 25.3809C83.218 24.8418 83.0129 24.2734 83.0129 23.6758C83.0129 22.9258 83.2297 22.3047 83.6633 21.8125C84.0969 21.3086 84.7238 20.8164 85.5441 20.3359C84.5129 19.8906 83.6926 19.1758 83.0832 18.1914C82.4855 17.207 82.1867 16.0469 82.1867 14.7109C82.1867 12.5664 82.884 10.9082 84.2785 9.73633C85.673 8.56445 87.6652 7.97852 90.2551 7.97852C90.8059 7.97852 91.4563 8.03125 92.2063 8.13672C92.968 8.23047 93.4543 8.30078 93.6652 8.34766H100.521ZM85.3508 30.7773C85.3508 31.5156 85.7023 32.0957 86.4055 32.5176C87.1203 32.9395 88.1164 33.1504 89.3938 33.1504C91.3156 33.1504 92.8215 32.8867 93.9113 32.3594C95.0012 31.832 95.5461 31.1113 95.5461 30.1973C95.5461 29.459 95.2238 28.9492 94.5793 28.668C93.9348 28.3867 92.9387 28.2461 91.591 28.2461H88.8137C87.8293 28.2461 87.0031 28.4746 86.3352 28.9316C85.6789 29.4004 85.3508 30.0156 85.3508 30.7773ZM87.302 14.7812C87.302 15.8477 87.5422 16.6914 88.0227 17.3125C88.5148 17.9336 89.259 18.2441 90.2551 18.2441C91.2629 18.2441 92.0012 17.9336 92.4699 17.3125C92.9387 16.6914 93.173 15.8477 93.173 14.7812C93.173 12.4141 92.2004 11.2305 90.2551 11.2305C88.2863 11.2305 87.302 12.4141 87.302 14.7812ZM110.111 11.793C108.975 11.793 108.084 12.1562 107.439 12.8828C106.795 13.5977 106.426 14.6172 106.332 15.9414H113.855C113.832 14.6172 113.486 13.5977 112.818 12.8828C112.15 12.1562 111.248 11.793 110.111 11.793ZM110.867 28.3516C107.703 28.3516 105.23 27.4785 103.449 25.7324C101.668 23.9863 100.777 21.5137 100.777 18.3145C100.777 15.0215 101.598 12.4785 103.238 10.6855C104.891 8.88086 107.17 7.97852 110.076 7.97852C112.854 7.97852 115.016 8.76953 116.562 10.3516C118.109 11.9336 118.883 14.1191 118.883 16.9082V19.5098H106.209C106.268 21.0332 106.719 22.2227 107.562 23.0781C108.406 23.9336 109.59 24.3613 111.113 24.3613C112.297 24.3613 113.416 24.2383 114.471 23.9922C115.525 23.7461 116.627 23.3535 117.775 22.8145V26.9629C116.838 27.4316 115.836 27.7773 114.77 28C113.703 28.2344 112.402 28.3516 110.867 28.3516ZM132.411 7.97852C133.137 7.97852 133.741 8.03125 134.221 8.13672L133.817 13.1641C133.384 13.0469 132.856 12.9883 132.235 12.9883C130.524 12.9883 129.188 13.4277 128.227 14.3066C127.278 15.1855 126.804 16.416 126.804 17.998V28H121.442V8.34766H125.503L126.294 11.6523H126.557C127.167 10.5508 127.987 9.66602 129.018 8.99805C130.061 8.31836 131.192 7.97852 132.411 7.97852Z" fill="#FFC700"/>
</svg>
